# xmcd
#
# Track frame offsets: 
#        150
#        20702
#        41692
#        59697
#        83465
#        106107
#        127905
#        156117
#        180787
#        202680
#        226565
#
# Disc length: 3271 seconds
#
# Revision: 1
# Processed by: cddbd v1.5.2PL0 Copyright (c) Steve Scherf et al.
# Submitted via: ExactAudioCopy v0.99pb4
#
DISCID=730cc50b
DTITLE=Pinetop Perkins - Pinetop is Just Top
DYEAR=1976
DGENRE=Blues
TTITLE0=Pinetop Boogie Woogie
TTITLE1=Jackson Town Gal
TTITLE2=For You My Love
TTITLE3=Sweet Black Angel
TTITLE4=Caldonia
TTITLE5=Lend Me Your Love
TTITLE6=Pinetop Is Just On Top
TTITLE7=So Many Days
TTITLE8=Take A Little Walk With Me
TTITLE9=Rockin The Boogie
TTITLE10=Rockin The Boogie Take 2
EXTD=YEAR: 1976
EXTT0=
EXTT1=
EXTT2=
EXTT3=
EXTT4=
EXTT5=
EXTT6=
EXTT7=
EXTT8=
EXTT9=
EXTT10=
PLAYORDER=
